<?xml version="1.0" encoding="UTF-8" standalone="no"?>
<svg
   xmlns:dc="http://purl.org/dc/elements/1.1/"
   xmlns:cc="http://creativecommons.org/ns#"
   xmlns:rdf="http://www.w3.org/1999/02/22-rdf-syntax-ns#"
   xmlns:svg="http://www.w3.org/2000/svg"
   xmlns="http://www.w3.org/2000/svg"
   xmlns:sodipodi="http://sodipodi.sourceforge.net/DTD/sodipodi-0.dtd"
   xmlns:inkscape="http://www.inkscape.org/namespaces/inkscape"
   version="1.1"
   id="svg2"
   xml:space="preserve"
   width="226.73334"
   height="226.72"
   viewBox="0 0 226.73334 226.72"
   sodipodi:docname="Spotify_Icon_Black_Coated.eps"><metadata
     id="metadata8"><rdf:RDF><cc:Work
         rdf:about=""><dc:format>image/svg+xml</dc:format><dc:type
           rdf:resource="http://purl.org/dc/dcmitype/StillImage" /></cc:Work></rdf:RDF></metadata><defs
     id="defs6" /><sodipodi:namedview
     pagecolor="#ffffff"
     bordercolor="#666666"
     borderopacity="1"
     objecttolerance="10"
     gridtolerance="10"
     guidetolerance="10"
     inkscape:pageopacity="0"
     inkscape:pageshadow="2"
     inkscape:window-width="640"
     inkscape:window-height="480"
     id="namedview4" /><g
     id="g10"
     inkscape:groupmode="layer"
     inkscape:label="ink_ext_XXXXXX"
     transform="matrix(1.3333333,0,0,-1.3333333,0,226.72)"><g
       id="g12"
       transform="scale(0.1)"><path
         d="m 1345.62,945.23 c -269.94,160.31 -715.202,175.05 -972.893,96.84 -41.383,-12.55 -85.145,10.81 -97.68,52.19 -12.543,41.4 10.793,85.13 52.207,97.71 295.812,89.8 787.556,72.45 1098.316,-112.02 37.22,-22.09 49.43,-70.16 27.37,-107.329 -22.08,-37.215 -70.19,-49.484 -107.32,-27.391 z m -8.84,-237.437 c -18.94,-30.734 -59.12,-40.363 -89.81,-21.504 -225.05,138.336 -568.216,178.41 -834.466,97.594 -34.527,-10.434 -70.996,9.031 -81.484,43.496 -10.403,34.527 9.074,70.93 43.539,81.426 304.152,92.295 682.261,47.593 940.741,-111.254 30.69,-18.899 40.35,-59.102 21.48,-89.758 z M 1234.31,479.762 c -15.05,-24.672 -47.18,-32.41 -71.77,-17.371 -196.653,120.187 -444.173,147.339 -735.673,80.75 -28.09,-6.442 -56.086,11.168 -62.492,39.25 -6.434,28.089 11.102,56.078 39.254,62.488 318.996,72.926 592.633,41.539 813.361,-93.34 24.61,-15.027 32.36,-47.18 17.32,-71.777 z M 850.254,1687.63 c -462.496,0 -837.4337,-374.92 -837.4337,-837.415 0,-462.535 374.9377,-837.4455 837.4337,-837.4455 462.506,0 837.426,374.9105 837.426,837.4455 0,462.495 -374.92,837.415 -837.426,837.415"
         style="fill:#2a2521;fill-opacity:1;fill-rule:nonzero;stroke:none"
         id="path14" /></g></g></svg>
